<svg xmlns="http://www.w3.org/2000/svg" viewBox="0 0 32 32">
  <rect width="32" height="32" rx="4" fill="#2d5a3d"/>
  <rect x="4" y="14" width="6" height="14" fill="#e8d8a0"/>
  <rect x="5" y="16" width="1.5" height="2" fill="#5a8a6a"/>
  <rect x="7.5" y="16" width="1.5" height="2" fill="#5a8a6a"/>
  <rect x="5" y="20" width="1.5" height="2" fill="#5a8a6a"/>
  <rect x="7.5" y="20" width="1.5" height="2" fill="#5a8a6a"/>
  <rect x="12" y="8" width="8" height="20" fill="#f0e6b8"/>
  <rect x="13.5" y="10" width="2" height="2.5" fill="#5a8a6a"/>
  <rect x="17" y="10" width="2" height="2.5" fill="#5a8a6a"/>
  <rect x="13.5" y="14.5" width="2" height="2.5" fill="#5a8a6a"/>
  <rect x="17" y="14.5" width="2" height="2.5" fill="#5a8a6a"/>
  <rect x="13.5" y="19" width="2" height="2.5" fill="#5a8a6a"/>
  <rect x="17" y="19" width="2" height="2.5" fill="#5a8a6a"/>
  <rect x="15" y="24" width="3" height="4" fill="#8b6f4e"/>
  <rect x="22" y="11" width="6" height="17" fill="#e0d098"/>
  <rect x="23" y="13" width="1.5" height="2" fill="#5a8a6a"/>
  <rect x="25.5" y="13" width="1.5" height="2" fill="#5a8a6a"/>
  <rect x="23" y="17" width="1.5" height="2" fill="#5a8a6a"/>
  <rect x="25.5" y="17" width="1.5" height="2" fill="#5a8a6a"/>
  <rect x="23" y="21" width="1.5" height="2" fill="#5a8a6a"/>
  <rect x="25.5" y="21" width="1.5" height="2" fill="#5a8a6a"/>
  <rect x="0" y="28" width="32" height="4" fill="#4a7a5a"/>
</svg>
